<?xml version="1.0" encoding="UTF-8"?>
<svg width="1200pt" height="1200pt" version="1.1" viewBox="0 0 1200 1200" xmlns="http://www.w3.org/2000/svg">
 <path d="m1072.8 633.6h13.199c46.801 0 84-38.398 84-84 0-45.602-38.398-84-84-84h-267.6c-15.602 0-26.398-13.199-24-28.801 18-116.4 42-156 54-276 12-116.4-153.6-135.6-177.6-28.801-44.398 200.4-210 334.8-265.2 374.4-10.801 8.3984-18 20.398-18 34.801v480c0 16.801 10.801 32.398 26.398 39.602 58.801 25.199 126 80.398 322.8 80.398h308.4c46.801 0 84-38.398 84-84 0-46.801-38.398-84-84-84h10.805c43.199 0 81.602-30 86.398-73.199 7.1992-51.602-33.602-96-84-96h9.6016c43.199 0 81.602-30 86.398-73.199 8.4023-52.801-32.398-97.199-81.598-97.199z"/>
 <path d="m279.6 517.2h-206.4c-24 0-43.199 19.199-43.199 43.199v445.2c0 24 19.199 43.199 43.199 43.199h207.6c24 0 43.199-19.199 43.199-43.199v-446.4c-1.1992-22.801-20.398-42-44.398-42zm-103.2 435.6c-25.199 0-45.602-20.398-45.602-45.602 0-25.199 20.398-45.602 45.602-45.602 25.199 0 45.602 20.398 45.602 45.602 0 25.199-20.398 45.602-45.602 45.602z"/>
</svg>
