<?xml version="1.0" encoding="utf-8"?>
<!-- Generator: Adobe Illustrator 28.3.0, SVG Export Plug-In . SVG Version: 6.00 Build 0)  -->
<svg version="1.1" id="Ebene_1" xmlns="http://www.w3.org/2000/svg" xmlns:xlink="http://www.w3.org/1999/xlink" x="0px" y="0px"
	 viewBox="0 0 1200 1200" style="enable-background:new 0 0 1200 1200;" xml:space="preserve">
<path d="M127.2,569.3H114c-46.8,0-84,38.4-84,84s38.4,84,84,84h267.6c15.6,0,26.4,13.2,24,28.8c-18,116.4-42,156-54,276
	c-12,116.4,153.6,135.6,177.6,28.8c44.4-200.4,210-334.8,265.2-374.4c10.8-8.4,18-20.4,18-34.8v-480c0-16.8-10.8-32.4-26.4-39.6
	c-58.8-25.2-126-80.4-322.8-80.4H154.8c-46.8,0-84,38.4-84,84c0,46.8,38.4,84,84,84H144c-43.2,0-81.6,30-86.4,73.2
	c-7.2,51.6,33.6,96,84,96H132c-43.2,0-81.6,30-86.4,73.2C37.2,524.9,78,569.3,127.2,569.3L127.2,569.3z"/>
<path d="M920.4,685.7h206.4c24,0,43.2-19.2,43.2-43.2V197.3c0-24-19.2-43.2-43.2-43.2H919.2c-24,0-43.2,19.2-43.2,43.2v446.4
	C877.2,666.5,896.4,685.7,920.4,685.7L920.4,685.7z M1023.6,250.1c25.2,0,45.6,20.4,45.6,45.6c0,25.2-20.4,45.6-45.6,45.6
	c-25.2,0-45.6-20.4-45.6-45.6C978,270.5,998.4,250.1,1023.6,250.1z"/>
</svg>
