<?xml version="1.0" encoding="UTF-8"?>
<svg width="1200pt" height="1200pt" version="1.1" viewBox="0 0 1200 1200" xmlns="http://www.w3.org/2000/svg">
 <path d="m264 751.45h120l153.14 120c7.0781 4.9688 16.359 5.6719 24.141 1.9219 7.8281-3.7969 12.984-11.531 13.5-20.156v-506.16c-0.51562-8.6719-5.6719-16.406-13.5-20.156-7.7812-3.7969-17.062-3.0469-24.141 1.875l-153.14 120h-120c-13.266 0-24 10.781-24 24v255.61c0.51562 12.891 11.109 23.062 24 23.062z"/>
 <path d="m821.06 822.24c-5.5312 9.4688-3.9375 21.469 3.8906 29.203 7.7812 7.6875 19.828 9.0938 29.203 3.4219 67.734-67.5 105.75-159.24 105.75-254.86 0-95.617-38.016-187.36-105.75-254.86-9.2812-8.8594-23.859-8.8594-33.094 0-8.7188 9.2344-8.7188 23.625 0 32.859 59.062 58.828 92.25 138.74 92.25 222.14 0 83.344-33.188 163.26-92.25 222.1z"/>
 <path d="m729.84 764.16c9.2344 8.6719 23.625 8.6719 32.859 0 43.688-43.406 68.203-102.47 68.203-164.02 0-61.594-24.516-120.66-68.203-164.06-9.2344-8.6719-23.625-8.6719-32.859 0-8.5312 9.1875-8.5312 23.438 0 32.625 34.922 34.781 54.516 82.031 54.516 131.29s-19.594 96.516-54.516 131.29c-8.6719 9.2344-8.6719 23.625 0 32.859z"/>
 <path d="m638.39 673.22c9.2812 8.8125 23.859 8.8125 33.141 0 39.938-40.125 40.125-104.86 0.46875-145.22-9.2812-8.8594-23.859-8.8594-33.141 0-8.6719 9.2344-8.6719 23.625 0 32.859 10.922 10.641 17.109 25.219 17.109 40.453s-6.1875 29.812-17.109 40.453c-7.9219 8.9062-8.1562 22.312-0.46875 31.453z"/>
</svg>
